<svg width="77" height="83" viewBox="0 0 77 83" fill="none" xmlns="http://www.w3.org/2000/svg">
<path fill-rule="evenodd" clip-rule="evenodd" d="M35.5133 28.2578C32.4426 26.0738 27.5193 21.9951 22.2041 15.9737C13.4329 6.03705 5.82705 -0.464717 0 0.0259821C6.86979 7.38649 10.8567 10.6374 13.0035 12.2935C15.1503 13.9496 10.182 10.9441 9.81398 10.5147C9.44596 10.0853 12.3902 16.7711 20.6094 21.8621C25.8674 25.1189 30.2217 28.7272 32.8534 31.7395C31.8713 32.8606 30.8177 33.9513 29.7593 35.0469C27.6106 37.2712 25.4422 39.5158 23.8118 42.0778C21.645 45.4825 21.3087 48.6348 21.0945 54.3098C20.9097 59.2052 22.534 62.8487 23.8454 65.7903C24.2757 66.7556 24.6723 67.6452 24.9602 68.4787C25.4122 69.7872 25.8087 71.345 26.2285 72.9943C26.891 75.5972 27.6115 78.4284 28.7003 80.8689C30.4791 84.8558 32.994 81.4822 33.362 80.8689C33.6564 80.3782 33.2393 79.3559 32.994 78.9061C32.9108 78.7938 32.8222 78.6744 32.7288 78.5486C30.9859 76.2005 27.5833 71.6165 26.9216 69.2147C26.7812 68.7054 26.633 68.2172 26.4891 67.7435C24.9355 62.6276 23.8982 59.2117 38.9437 49.2188C54.9454 38.5908 51.3205 30.039 50.874 28.9855C50.8618 28.9567 50.852 28.9335 50.845 28.9161C50.7982 28.7991 50.7088 28.6475 50.599 28.4613C49.8448 27.1818 48.1262 24.2665 52.6238 19.7155C57.5864 14.6938 70.343 12.2707 76.0441 11.5692C76.4311 11.5216 77.0562 10.9442 76.6662 10.9442C71.8791 11.1766 64.662 12.9233 59.8983 14.0762C58.3751 14.4449 57.1028 14.7528 56.2409 14.9311C54.1371 15.3664 52.7626 14.9222 51.1788 14.4104C50.0843 14.0568 48.8898 13.6708 47.2856 13.5204C43.36 13.1524 38.9437 15.7285 37.7783 22.5983C37.4246 24.6835 36.6068 26.5365 35.5133 28.2578Z" fill="#FF335D"/>
<path d="M22.3074 0.817583C21.6204 0.179674 21.326 0.960703 21.2646 1.43096C22.8349 2.167 23.2683 7.2989 23.2888 9.77285C23.207 10.284 23.1784 11.4658 23.7181 12.1037C24.3929 12.9011 28.3798 19.4642 30.2812 22.4697C31.8024 24.8741 33.7775 25.8841 34.5749 26.0886C33.941 23.9418 32.0846 18.2251 29.7292 12.533C26.785 5.41789 23.1661 1.61497 22.3074 0.817583Z" fill="#FF335D"/>
<path d="M33.901 31.6721L13.4143 15.479C13.2916 15.479 12.9972 15.5771 12.8009 15.9697C12.5556 16.4604 13.4143 17.9325 15.1931 19.7726C16.6161 21.2447 28.2579 28.319 33.901 31.6721Z" fill="#FF335D"/>
<path d="M19.7892 22.7158C18.6606 22.0779 15.925 20.937 14.6982 20.4463C16.0722 23.5868 27.988 29.3607 33.8355 31.671C29.5828 29.0744 20.9179 23.3537 19.7892 22.7158Z" fill="#FF335D"/>
<path d="M27.5168 36.5771C30.9027 35.9391 33.1394 33.2853 33.8346 32.0381C33.4053 32.5901 30.5837 33.2648 26.6581 34.0622C22.7325 34.8596 22.1805 37.1291 22.1191 37.4358C22.0578 37.7425 22.1805 38.0492 22.4258 37.8038C22.6712 37.5585 23.2846 37.3744 27.5168 36.5771Z" fill="#FF335D"/>
<path d="M24.5181 35.658C22.2486 37.1915 19.4884 36.5781 19.3657 36.5781C18.2003 36.2714 19.9178 34.5539 21.2672 32.9592C22.6166 31.3644 25.0088 31.9164 25.7448 31.9164C26.4809 31.9164 34.4547 31.0577 33.8413 32.1005C33.228 33.1432 26.7875 34.1246 24.5181 35.658Z" fill="#FF335D"/>
<path d="M27.7588 28.6037C22.1158 25.8067 17.3928 24.6167 15.7367 24.3714C14.9802 24.2692 14.0561 24.7026 16.4114 27.2543C19.3556 30.4438 17.6382 31.6705 25.7347 32.0999C32.2119 32.4434 33.8312 31.9568 33.8312 31.6705C34.1584 31.8137 33.4019 31.4007 27.7588 28.6037Z" fill="#FF335D"/>
</svg>
